<?xml version="1.0" encoding="UTF-8"?>
<svg version="1.1" xmlns="http://www.w3.org/2000/svg" width="126" height="126">
<path d="M0 0 C4.62 0 9.24 0 14 0 C14 2.31 14 4.62 14 7 C16.31 7 18.62 7 21 7 C21 4.69 21 2.38 21 0 C48.72 0 76.44 0 105 0 C105 2.31 105 4.62 105 7 C107.31 7 109.62 7 112 7 C112 4.69 112 2.38 112 0 C116.62 0 121.24 0 126 0 C126 32.34 126 64.68 126 98 C121.38 98 116.76 98 112 98 C112 100.31 112 102.62 112 105 C109.69 105 107.38 105 105 105 C105 107.31 105 109.62 105 112 C102.69 112 100.38 112 98 112 C98 114.31 98 116.62 98 119 C95.69 119 93.38 119 91 119 C91 121.31 91 123.62 91 126 C70.21 126 49.42 126 28 126 C28 123.69 28 121.38 28 119 C25.69 119 23.38 119 21 119 C21 116.69 21 114.38 21 112 C18.69 112 16.38 112 14 112 C14 109.69 14 107.38 14 105 C11.69 105 9.38 105 7 105 C7 102.69 7 100.38 7 98 C4.69 98 2.38 98 0 98 C0 65.66 0 33.32 0 0 Z " fill="#BB7744" transform="translate(0,0)"/>
<path d="M0 0 C2.31 0 4.62 0 7 0 C7 6.93 7 13.86 7 21 C16.24 21 25.48 21 35 21 C35 18.69 35 16.38 35 14 C37.31 14 39.62 14 42 14 C42 23.24 42 32.48 42 42 C46.62 42 51.24 42 56 42 C56 37.38 56 32.76 56 28 C53.69 28 51.38 28 49 28 C49 25.69 49 23.38 49 21 C55.93 21 62.86 21 70 21 C70 32.55 70 44.1 70 56 C67.69 56 65.38 56 63 56 C63 58.31 63 60.62 63 63 C60.69 63 58.38 63 56 63 C56 65.31 56 67.62 56 70 C53.69 70 51.38 70 49 70 C49 72.31 49 74.62 49 77 C28.21 77 7.42 77 -14 77 C-14 74.69 -14 72.38 -14 70 C-16.31 70 -18.62 70 -21 70 C-21 67.69 -21 65.38 -21 63 C-23.31 63 -25.62 63 -28 63 C-28 49.14 -28 35.28 -28 21 C-23.38 21 -18.76 21 -14 21 C-14 27.93 -14 34.86 -14 42 C-9.38 42 -4.76 42 0 42 C0 37.38 0 32.76 0 28 C-2.31 28 -4.62 28 -7 28 C-7 25.69 -7 23.38 -7 21 C-4.69 21 -2.38 21 0 21 C0 14.07 0 7.14 0 0 Z " fill="#FFDDCC" transform="translate(42,49)"/>
<path d="M0 0 C4.62 0 9.24 0 14 0 C14 2.31 14 4.62 14 7 C16.31 7 18.62 7 21 7 C21 4.69 21 2.38 21 0 C48.72 0 76.44 0 105 0 C105 2.31 105 4.62 105 7 C107.31 7 109.62 7 112 7 C112 4.69 112 2.38 112 0 C116.62 0 121.24 0 126 0 C126 11.55 126 23.1 126 35 C123.69 35 121.38 35 119 35 C119 32.69 119 30.38 119 28 C114.38 28 109.76 28 105 28 C105 32.62 105 37.24 105 42 C107.31 42 109.62 42 112 42 C112 44.31 112 46.62 112 49 C109.69 49 107.38 49 105 49 C105 51.31 105 53.62 105 56 C102.69 56 100.38 56 98 56 C98 53.69 98 51.38 98 49 C95.69 49 93.38 49 91 49 C91 46.69 91 44.38 91 42 C86.38 42 81.76 42 77 42 C77 44.31 77 46.62 77 49 C72.38 49 67.76 49 63 49 C63 51.31 63 53.62 63 56 C60.69 56 58.38 56 56 56 C56 49.07 56 42.14 56 35 C51.38 35 46.76 35 42 35 C42 32.69 42 30.38 42 28 C39.69 28 37.38 28 35 28 C35 23.38 35 18.76 35 14 C25.76 14 16.52 14 7 14 C7 16.31 7 18.62 7 21 C4.69 21 2.38 21 0 21 C0 14.07 0 7.14 0 0 Z " fill="#BB7744" transform="translate(0,0)"/>
<path d="M0 0 C4.62 0 9.24 0 14 0 C14 2.31 14 4.62 14 7 C16.31 7 18.62 7 21 7 C21 27.79 21 48.58 21 70 C16.38 70 11.76 70 7 70 C7 60.76 7 51.52 7 42 C0.07 42 -6.86 42 -14 42 C-14 44.31 -14 46.62 -14 49 C-11.69 49 -9.38 49 -7 49 C-7 53.62 -7 58.24 -7 63 C-11.62 63 -16.24 63 -21 63 C-21 53.76 -21 44.52 -21 35 C-23.31 35 -25.62 35 -28 35 C-28 37.31 -28 39.62 -28 42 C-37.24 42 -46.48 42 -56 42 C-56 35.07 -56 28.14 -56 21 C-58.31 21 -60.62 21 -63 21 C-63 18.69 -63 16.38 -63 14 C-60.69 14 -58.38 14 -56 14 C-56 11.69 -56 9.38 -56 7 C-53.69 7 -51.38 7 -49 7 C-49 13.93 -49 20.86 -49 28 C-46.69 28 -44.38 28 -42 28 C-42 25.69 -42 23.38 -42 21 C-37.38 21 -32.76 21 -28 21 C-28 18.69 -28 16.38 -28 14 C-23.38 14 -18.76 14 -14 14 C-14 16.31 -14 18.62 -14 21 C-11.69 21 -9.38 21 -7 21 C-7 23.31 -7 25.62 -7 28 C-4.69 28 -2.38 28 0 28 C0 25.69 0 23.38 0 21 C2.31 21 4.62 21 7 21 C7 18.69 7 16.38 7 14 C4.69 14 2.38 14 0 14 C0 9.38 0 4.76 0 0 Z " fill="#000000" transform="translate(105,28)"/>
<path d="M0 0 C4.62 0 9.24 0 14 0 C14 2.31 14 4.62 14 7 C37.1 7 60.2 7 84 7 C84 9.31 84 11.62 84 14 C81.69 14 79.38 14 77 14 C77 16.31 77 18.62 77 21 C56.21 21 35.42 21 14 21 C14 18.69 14 16.38 14 14 C11.69 14 9.38 14 7 14 C7 11.69 7 9.38 7 7 C4.69 7 2.38 7 0 7 C0 4.69 0 2.38 0 0 Z " fill="#FFBBAA" transform="translate(14,105)"/>
<path d="M0 0 C9.24 0 18.48 0 28 0 C28 2.31 28 4.62 28 7 C30.31 7 32.62 7 35 7 C35 11.62 35 16.24 35 21 C32.69 21 30.38 21 28 21 C28 18.69 28 16.38 28 14 C23.38 14 18.76 14 14 14 C14 18.62 14 23.24 14 28 C16.31 28 18.62 28 21 28 C21 30.31 21 32.62 21 35 C18.69 35 16.38 35 14 35 C14 37.31 14 39.62 14 42 C11.69 42 9.38 42 7 42 C7 39.69 7 37.38 7 35 C4.69 35 2.38 35 0 35 C0 32.69 0 30.38 0 28 C-4.62 28 -9.24 28 -14 28 C-14 25.69 -14 23.38 -14 21 C-11.69 21 -9.38 21 -7 21 C-7 18.69 -7 16.38 -7 14 C-4.69 14 -2.38 14 0 14 C0 9.38 0 4.76 0 0 Z " fill="#FFFFFF" transform="translate(91,14)"/>
<path d="M0 0 C2.31 0 4.62 0 7 0 C7 6.93 7 13.86 7 21 C16.24 21 25.48 21 35 21 C35 18.69 35 16.38 35 14 C37.31 14 39.62 14 42 14 C42 23.24 42 32.48 42 42 C39.69 42 37.38 42 35 42 C35 39.69 35 37.38 35 35 C25.76 35 16.52 35 7 35 C7 37.31 7 39.62 7 42 C4.69 42 2.38 42 0 42 C0 37.38 0 32.76 0 28 C-2.31 28 -4.62 28 -7 28 C-7 25.69 -7 23.38 -7 21 C-4.69 21 -2.38 21 0 21 C0 14.07 0 7.14 0 0 Z " fill="#FFBBAA" transform="translate(42,49)"/>
<path d="M0 0 C2.31 0 4.62 0 7 0 C7 6.93 7 13.86 7 21 C4.69 21 2.38 21 0 21 C0 23.31 0 25.62 0 28 C2.31 28 4.62 28 7 28 C7 32.62 7 37.24 7 42 C2.38 42 -2.24 42 -7 42 C-7 35.07 -7 28.14 -7 21 C-11.62 21 -16.24 21 -21 21 C-21 32.55 -21 44.1 -21 56 C-23.31 56 -25.62 56 -28 56 C-28 53.69 -28 51.38 -28 49 C-30.31 49 -32.62 49 -35 49 C-35 46.69 -35 44.38 -35 42 C-32.69 42 -30.38 42 -28 42 C-28 32.76 -28 23.52 -28 14 C-18.76 14 -9.52 14 0 14 C0 9.38 0 4.76 0 0 Z " fill="#000000" transform="translate(35,49)"/>
<path d="M0 0 C4.62 0 9.24 0 14 0 C14 2.31 14 4.62 14 7 C16.31 7 18.62 7 21 7 C21 25.48 21 43.96 21 63 C18.69 63 16.38 63 14 63 C14 53.76 14 44.52 14 35 C7.07 35 0.14 35 -7 35 C-7 32.69 -7 30.38 -7 28 C-4.69 28 -2.38 28 0 28 C0 25.69 0 23.38 0 21 C2.31 21 4.62 21 7 21 C7 18.69 7 16.38 7 14 C4.69 14 2.38 14 0 14 C0 9.38 0 4.76 0 0 Z " fill="#775533" transform="translate(105,28)"/>
<path d="M0 0 C4.62 0 9.24 0 14 0 C14 4.62 14 9.24 14 14 C16.31 14 18.62 14 21 14 C21 18.62 21 23.24 21 28 C16.38 28 11.76 28 7 28 C7 37.24 7 46.48 7 56 C4.69 56 2.38 56 0 56 C0 37.52 0 19.04 0 0 Z " fill="#775533" transform="translate(0,35)"/>
<path d="M0 0 C4.62 0 9.24 0 14 0 C14 4.62 14 9.24 14 14 C16.31 14 18.62 14 21 14 C21 16.31 21 18.62 21 21 C23.31 21 25.62 21 28 21 C28 23.31 28 25.62 28 28 C25.69 28 23.38 28 21 28 C21 30.31 21 32.62 21 35 C18.69 35 16.38 35 14 35 C14 37.31 14 39.62 14 42 C11.69 42 9.38 42 7 42 C7 37.38 7 32.76 7 28 C4.69 28 2.38 28 0 28 C0 23.38 0 18.76 0 14 C2.31 14 4.62 14 7 14 C7 11.69 7 9.38 7 7 C4.69 7 2.38 7 0 7 C0 4.69 0 2.38 0 0 Z " fill="#FFFFFF" transform="translate(21,14)"/>
<path d="M0 0 C27.72 0 55.44 0 84 0 C84 2.31 84 4.62 84 7 C56.28 7 28.56 7 0 7 C0 4.69 0 2.38 0 0 Z " fill="#000000" transform="translate(21,0)"/>
<path d="M0 0 C20.79 0 41.58 0 63 0 C63 2.31 63 4.62 63 7 C42.21 7 21.42 7 0 7 C0 4.69 0 2.38 0 0 Z " fill="#000000" transform="translate(28,119)"/>
<path d="M0 0 C6.93 0 13.86 0 21 0 C21 11.55 21 23.1 21 35 C18.69 35 16.38 35 14 35 C14 30.38 14 25.76 14 21 C11.69 21 9.38 21 7 21 C7 16.38 7 11.76 7 7 C4.69 7 2.38 7 0 7 C0 4.69 0 2.38 0 0 Z " fill="#FFBBAA" transform="translate(91,70)"/>
<path d="M0 0 C4.62 0 9.24 0 14 0 C14 6.93 14 13.86 14 21 C11.69 21 9.38 21 7 21 C7 23.31 7 25.62 7 28 C9.31 28 11.62 28 14 28 C14 30.31 14 32.62 14 35 C9.38 35 4.76 35 0 35 C0 23.45 0 11.9 0 0 Z " fill="#FFBBAA" transform="translate(14,70)"/>
<path d="M0 0 C2.31 0 4.62 0 7 0 C7 9.24 7 18.48 7 28 C13.93 28 20.86 28 28 28 C28 30.31 28 32.62 28 35 C18.76 35 9.52 35 0 35 C0 28.07 0 21.14 0 14 C-2.31 14 -4.62 14 -7 14 C-7 11.69 -7 9.38 -7 7 C-4.69 7 -2.38 7 0 7 C0 4.69 0 2.38 0 0 Z " fill="#000000" transform="translate(49,35)"/>
<path d="M0 0 C2.31 0 4.62 0 7 0 C7 2.31 7 4.62 7 7 C9.31 7 11.62 7 14 7 C14 9.31 14 11.62 14 14 C16.31 14 18.62 14 21 14 C21 16.31 21 18.62 21 21 C16.38 21 11.76 21 7 21 C7 23.31 7 25.62 7 28 C4.69 28 2.38 28 0 28 C0 18.76 0 9.52 0 0 Z " fill="#FFFFFF" transform="translate(56,28)"/>
<path d="M0 0 C4.62 0 9.24 0 14 0 C14 2.31 14 4.62 14 7 C16.31 7 18.62 7 21 7 C21 9.31 21 11.62 21 14 C14.07 14 7.14 14 0 14 C0 16.31 0 18.62 0 21 C-2.31 21 -4.62 21 -7 21 C-7 16.38 -7 11.76 -7 7 C-4.69 7 -2.38 7 0 7 C0 4.69 0 2.38 0 0 Z " fill="#FFDDCC" transform="translate(7,14)"/>
<path d="M0 0 C4.62 0 9.24 0 14 0 C14 2.31 14 4.62 14 7 C16.31 7 18.62 7 21 7 C21 11.62 21 16.24 21 21 C18.69 21 16.38 21 14 21 C14 18.69 14 16.38 14 14 C9.38 14 4.76 14 0 14 C0 9.38 0 4.76 0 0 Z " fill="#FFDDCC" transform="translate(105,14)"/>
<path d="M0 0 C9.24 0 18.48 0 28 0 C28 2.31 28 4.62 28 7 C25.69 7 23.38 7 21 7 C21 9.31 21 11.62 21 14 C16.38 14 11.76 14 7 14 C7 11.69 7 9.38 7 7 C4.69 7 2.38 7 0 7 C0 4.69 0 2.38 0 0 Z " fill="#775533" transform="translate(49,7)"/>
<path d="M0 0 C4.62 0 9.24 0 14 0 C14 6.93 14 13.86 14 21 C11.69 21 9.38 21 7 21 C7 18.69 7 16.38 7 14 C2.38 14 -2.24 14 -7 14 C-7 11.69 -7 9.38 -7 7 C-4.69 7 -2.38 7 0 7 C0 4.69 0 2.38 0 0 Z " fill="#000000" transform="translate(112,0)"/>
<path d="M0 0 C4.62 0 9.24 0 14 0 C14 2.31 14 4.62 14 7 C16.31 7 18.62 7 21 7 C21 9.31 21 11.62 21 14 C16.38 14 11.76 14 7 14 C7 16.31 7 18.62 7 21 C4.69 21 2.38 21 0 21 C0 14.07 0 7.14 0 0 Z " fill="#000000" transform="translate(0,0)"/>
<path d="M0 0 C4.62 0 9.24 0 14 0 C14 4.62 14 9.24 14 14 C7.07 14 0.14 14 -7 14 C-7 11.69 -7 9.38 -7 7 C-4.69 7 -2.38 7 0 7 C0 4.69 0 2.38 0 0 Z " fill="#775533" transform="translate(105,49)"/>
<path d="M0 0 C4.62 0 9.24 0 14 0 C14 4.62 14 9.24 14 14 C7.07 14 0.14 14 -7 14 C-7 11.69 -7 9.38 -7 7 C-4.69 7 -2.38 7 0 7 C0 4.69 0 2.38 0 0 Z " fill="#775533" transform="translate(63,49)"/>
<path d="M0 0 C2.31 0 4.62 0 7 0 C7 4.62 7 9.24 7 14 C9.31 14 11.62 14 14 14 C14 16.31 14 18.62 14 21 C11.69 21 9.38 21 7 21 C7 23.31 7 25.62 7 28 C4.69 28 2.38 28 0 28 C0 18.76 0 9.52 0 0 Z " fill="#FFDDCC" transform="translate(98,28)"/>
<path d="M0 0 C4.62 0 9.24 0 14 0 C14 4.62 14 9.24 14 14 C9.38 14 4.76 14 0 14 C0 9.38 0 4.76 0 0 Z " fill="#775533" transform="translate(7,49)"/>
<path d="M0 0 C4.62 0 9.24 0 14 0 C14 2.31 14 4.62 14 7 C11.69 7 9.38 7 7 7 C7 11.62 7 16.24 7 21 C4.69 21 2.38 21 0 21 C0 14.07 0 7.14 0 0 Z " fill="#000000" transform="translate(77,42)"/>
<path d="M0 0 C4.62 0 9.24 0 14 0 C14 6.93 14 13.86 14 21 C11.69 21 9.38 21 7 21 C7 16.38 7 11.76 7 7 C4.69 7 2.38 7 0 7 C0 4.69 0 2.38 0 0 Z " fill="#775533" transform="translate(7,28)"/>
<path d="M0 0 C4.62 0 9.24 0 14 0 C14 4.62 14 9.24 14 14 C11.69 14 9.38 14 7 14 C7 11.69 7 9.38 7 7 C4.69 7 2.38 7 0 7 C0 4.69 0 2.38 0 0 Z " fill="#D69789" transform="translate(14,105)"/>
<path d="M0 0 C2.31 0 4.62 0 7 0 C7 4.62 7 9.24 7 14 C2.38 14 -2.24 14 -7 14 C-7 11.69 -7 9.38 -7 7 C-4.69 7 -2.38 7 0 7 C0 4.69 0 2.38 0 0 Z " fill="#000000" transform="translate(91,77)"/>
<path d="M0 0 C2.31 0 4.62 0 7 0 C7 4.62 7 9.24 7 14 C2.38 14 -2.24 14 -7 14 C-7 11.69 -7 9.38 -7 7 C-4.69 7 -2.38 7 0 7 C0 4.69 0 2.38 0 0 Z " fill="#000000" transform="translate(35,77)"/>
<path d="M0 0 C2.31 0 4.62 0 7 0 C7 4.62 7 9.24 7 14 C2.38 14 -2.24 14 -7 14 C-7 11.69 -7 9.38 -7 7 C-4.69 7 -2.38 7 0 7 C0 4.69 0 2.38 0 0 Z " fill="#775533" transform="translate(49,35)"/>
<path d="M0 0 C4.62 0 9.24 0 14 0 C14 2.31 14 4.62 14 7 C11.69 7 9.38 7 7 7 C7 9.31 7 11.62 7 14 C4.69 14 2.38 14 0 14 C0 9.38 0 4.76 0 0 Z " fill="#BB7744" transform="translate(105,28)"/>
<path d="M0 0 C4.62 0 9.24 0 14 0 C14 4.62 14 9.24 14 14 C11.69 14 9.38 14 7 14 C7 11.69 7 9.38 7 7 C4.69 7 2.38 7 0 7 C0 4.69 0 2.38 0 0 Z " fill="#FFFFFF" transform="translate(21,14)"/>
<path d="M0 0 C6.93 0 13.86 0 21 0 C21 2.31 21 4.62 21 7 C14.07 7 7.14 7 0 7 C0 4.69 0 2.38 0 0 Z " fill="#BB7744" transform="translate(21,7)"/>
<path d="M0 0 C4.62 0 9.24 0 14 0 C14 2.31 14 4.62 14 7 C9.38 7 4.76 7 0 7 C0 4.69 0 2.38 0 0 Z " fill="#FFFFFF" transform="translate(91,91)"/>
<path d="M0 0 C4.62 0 9.24 0 14 0 C14 2.31 14 4.62 14 7 C9.38 7 4.76 7 0 7 C0 4.69 0 2.38 0 0 Z " fill="#FFFFFF" transform="translate(21,91)"/>
<path d="M0 0 C2.31 0 4.62 0 7 0 C7 4.62 7 9.24 7 14 C4.69 14 2.38 14 0 14 C0 9.38 0 4.76 0 0 Z " fill="#FFFFFF" transform="translate(119,77)"/>
<path d="M0 0 C2.31 0 4.62 0 7 0 C7 4.62 7 9.24 7 14 C4.69 14 2.38 14 0 14 C0 9.38 0 4.76 0 0 Z " fill="#FFFFFF" transform="translate(0,77)"/>
<path d="M0 0 C2.31 0 4.62 0 7 0 C7 4.62 7 9.24 7 14 C4.69 14 2.38 14 0 14 C0 9.38 0 4.76 0 0 Z " fill="#BB7744" transform="translate(119,63)"/>
<path d="M0 0 C2.31 0 4.62 0 7 0 C7 4.62 7 9.24 7 14 C4.69 14 2.38 14 0 14 C0 9.38 0 4.76 0 0 Z " fill="#BB7744" transform="translate(0,63)"/>
<path d="M0 0 C2.31 0 4.62 0 7 0 C7 4.62 7 9.24 7 14 C4.69 14 2.38 14 0 14 C0 9.38 0 4.76 0 0 Z " fill="#000000" transform="translate(119,49)"/>
<path d="M0 0 C2.31 0 4.62 0 7 0 C7 4.62 7 9.24 7 14 C4.69 14 2.38 14 0 14 C0 9.38 0 4.76 0 0 Z " fill="#BB7744" transform="translate(112,49)"/>
<path d="M0 0 C2.31 0 4.62 0 7 0 C7 4.62 7 9.24 7 14 C4.69 14 2.38 14 0 14 C0 9.38 0 4.76 0 0 Z " fill="#FFBBAA" transform="translate(84,49)"/>
<path d="M0 0 C2.31 0 4.62 0 7 0 C7 4.62 7 9.24 7 14 C4.69 14 2.38 14 0 14 C0 9.38 0 4.76 0 0 Z " fill="#BB7744" transform="translate(70,49)"/>
<path d="M0 0 C2.31 0 4.62 0 7 0 C7 4.62 7 9.24 7 14 C4.69 14 2.38 14 0 14 C0 9.38 0 4.76 0 0 Z " fill="#BB7744" transform="translate(7,49)"/>
<path d="M0 0 C2.31 0 4.62 0 7 0 C7 4.62 7 9.24 7 14 C4.69 14 2.38 14 0 14 C0 9.38 0 4.76 0 0 Z " fill="#000000" transform="translate(0,49)"/>
<path d="M0 0 C2.31 0 4.62 0 7 0 C7 4.62 7 9.24 7 14 C4.69 14 2.38 14 0 14 C0 9.38 0 4.76 0 0 Z " fill="#FFBBAA" transform="translate(28,42)"/>
<path d="M0 0 C2.31 0 4.62 0 7 0 C7 4.62 7 9.24 7 14 C4.69 14 2.38 14 0 14 C0 9.38 0 4.76 0 0 Z " fill="#FFBBAA" transform="translate(21,28)"/>
<path d="M0 0 C2.31 0 4.62 0 7 0 C7 4.62 7 9.24 7 14 C4.69 14 2.38 14 0 14 C0 9.38 0 4.76 0 0 Z " fill="#775533" transform="translate(70,28)"/>
<path d="M0 0 C4.62 0 9.24 0 14 0 C14 2.31 14 4.62 14 7 C9.38 7 4.76 7 0 7 C0 4.69 0 2.38 0 0 Z " fill="#BB7744" transform="translate(105,14)"/>
<path d="M0 0 C4.62 0 9.24 0 14 0 C14 2.31 14 4.62 14 7 C9.38 7 4.76 7 0 7 C0 4.69 0 2.38 0 0 Z " fill="#FFDDCC" transform="translate(91,14)"/>
<path d="M0 0 C4.62 0 9.24 0 14 0 C14 2.31 14 4.62 14 7 C9.38 7 4.76 7 0 7 C0 4.69 0 2.38 0 0 Z " fill="#BB7744" transform="translate(7,14)"/>
<path d="M0 0 C2.31 0 4.62 0 7 0 C7 2.31 7 4.62 7 7 C4.69 7 2.38 7 0 7 C0 4.69 0 2.38 0 0 Z " fill="#000000" transform="translate(91,112)"/>
<path d="M0 0 C2.31 0 4.62 0 7 0 C7 2.31 7 4.62 7 7 C4.69 7 2.38 7 0 7 C0 4.69 0 2.38 0 0 Z " fill="#D69789" transform="translate(84,112)"/>
<path d="M0 0 C2.31 0 4.62 0 7 0 C7 2.31 7 4.62 7 7 C4.69 7 2.38 7 0 7 C0 4.69 0 2.38 0 0 Z " fill="#D69789" transform="translate(28,112)"/>
<path d="M0 0 C2.31 0 4.62 0 7 0 C7 2.31 7 4.62 7 7 C4.69 7 2.38 7 0 7 C0 4.69 0 2.38 0 0 Z " fill="#000000" transform="translate(21,112)"/>
<path d="M0 0 C2.31 0 4.62 0 7 0 C7 2.31 7 4.62 7 7 C4.69 7 2.38 7 0 7 C0 4.69 0 2.38 0 0 Z " fill="#000000" transform="translate(98,105)"/>
<path d="M0 0 C2.31 0 4.62 0 7 0 C7 2.31 7 4.62 7 7 C4.69 7 2.38 7 0 7 C0 4.69 0 2.38 0 0 Z " fill="#FFBBAA" transform="translate(91,105)"/>
<path d="M0 0 C2.31 0 4.62 0 7 0 C7 2.31 7 4.62 7 7 C4.69 7 2.38 7 0 7 C0 4.69 0 2.38 0 0 Z " fill="#FFBBAA" transform="translate(28,105)"/>
<path d="M0 0 C2.31 0 4.62 0 7 0 C7 2.31 7 4.62 7 7 C4.69 7 2.38 7 0 7 C0 4.69 0 2.38 0 0 Z " fill="#000000" transform="translate(14,105)"/>
<path d="M0 0 C2.31 0 4.62 0 7 0 C7 2.31 7 4.62 7 7 C4.69 7 2.38 7 0 7 C0 4.69 0 2.38 0 0 Z " fill="#000000" transform="translate(105,98)"/>
<path d="M0 0 C2.31 0 4.62 0 7 0 C7 2.31 7 4.62 7 7 C4.69 7 2.38 7 0 7 C0 4.69 0 2.38 0 0 Z " fill="#FFBBAA" transform="translate(98,98)"/>
<path d="M0 0 C2.31 0 4.62 0 7 0 C7 2.31 7 4.62 7 7 C4.69 7 2.38 7 0 7 C0 4.69 0 2.38 0 0 Z " fill="#FFDDCC" transform="translate(119,77)"/>
<path d="M0 0 C2.31 0 4.62 0 7 0 C7 2.31 7 4.62 7 7 C4.69 7 2.38 7 0 7 C0 4.69 0 2.38 0 0 Z " fill="#666666" transform="translate(84,77)"/>
<path d="M0 0 C2.31 0 4.62 0 7 0 C7 2.31 7 4.62 7 7 C4.69 7 2.38 7 0 7 C0 4.69 0 2.38 0 0 Z " fill="#666666" transform="translate(28,77)"/>
<path d="M0 0 C2.31 0 4.62 0 7 0 C7 2.31 7 4.62 7 7 C4.69 7 2.38 7 0 7 C0 4.69 0 2.38 0 0 Z " fill="#FFDDCC" transform="translate(0,77)"/>
<path d="M0 0 C2.31 0 4.62 0 7 0 C7 2.31 7 4.62 7 7 C4.69 7 2.38 7 0 7 C0 4.69 0 2.38 0 0 Z " fill="#FFFFFF" transform="translate(91,70)"/>
<path d="M0 0 C2.31 0 4.62 0 7 0 C7 2.31 7 4.62 7 7 C4.69 7 2.38 7 0 7 C0 4.69 0 2.38 0 0 Z " fill="#FFFFFF" transform="translate(35,70)"/>
<path d="M0 0 C2.31 0 4.62 0 7 0 C7 2.31 7 4.62 7 7 C4.69 7 2.38 7 0 7 C0 4.69 0 2.38 0 0 Z " fill="#775533" transform="translate(119,63)"/>
<path d="M0 0 C2.31 0 4.62 0 7 0 C7 2.31 7 4.62 7 7 C4.69 7 2.38 7 0 7 C0 4.69 0 2.38 0 0 Z " fill="#775533" transform="translate(0,63)"/>
<path d="M0 0 C2.31 0 4.62 0 7 0 C7 2.31 7 4.62 7 7 C4.69 7 2.38 7 0 7 C0 4.69 0 2.38 0 0 Z " fill="#BB7744" transform="translate(98,56)"/>
<path d="M0 0 C2.31 0 4.62 0 7 0 C7 2.31 7 4.62 7 7 C4.69 7 2.38 7 0 7 C0 4.69 0 2.38 0 0 Z " fill="#BB7744" transform="translate(56,56)"/>
<path d="M0 0 C2.31 0 4.62 0 7 0 C7 2.31 7 4.62 7 7 C4.69 7 2.38 7 0 7 C0 4.69 0 2.38 0 0 Z " fill="#FFDDCC" transform="translate(98,49)"/>
<path d="M0 0 C2.31 0 4.62 0 7 0 C7 2.31 7 4.62 7 7 C4.69 7 2.38 7 0 7 C0 4.69 0 2.38 0 0 Z " fill="#FFDDCC" transform="translate(56,49)"/>
<path d="M0 0 C2.31 0 4.62 0 7 0 C7 2.31 7 4.62 7 7 C4.69 7 2.38 7 0 7 C0 4.69 0 2.38 0 0 Z " fill="#FFDDCC" transform="translate(105,42)"/>
<path d="M0 0 C2.31 0 4.62 0 7 0 C7 2.31 7 4.62 7 7 C4.69 7 2.38 7 0 7 C0 4.69 0 2.38 0 0 Z " fill="#775533" transform="translate(98,42)"/>
<path d="M0 0 C2.31 0 4.62 0 7 0 C7 2.31 7 4.62 7 7 C4.69 7 2.38 7 0 7 C0 4.69 0 2.38 0 0 Z " fill="#FFDDCC" transform="translate(91,42)"/>
<path d="M0 0 C2.31 0 4.62 0 7 0 C7 2.31 7 4.62 7 7 C4.69 7 2.38 7 0 7 C0 4.69 0 2.38 0 0 Z " fill="#FFBBAA" transform="translate(70,42)"/>
<path d="M0 0 C2.31 0 4.62 0 7 0 C7 2.31 7 4.62 7 7 C4.69 7 2.38 7 0 7 C0 4.69 0 2.38 0 0 Z " fill="#000000" transform="translate(42,42)"/>
<path d="M0 0 C2.31 0 4.62 0 7 0 C7 2.31 7 4.62 7 7 C4.69 7 2.38 7 0 7 C0 4.69 0 2.38 0 0 Z " fill="#FFDDCC" transform="translate(35,42)"/>
<path d="M0 0 C2.31 0 4.62 0 7 0 C7 2.31 7 4.62 7 7 C4.69 7 2.38 7 0 7 C0 4.69 0 2.38 0 0 Z " fill="#775533" transform="translate(21,42)"/>
<path d="M0 0 C2.31 0 4.62 0 7 0 C7 2.31 7 4.62 7 7 C4.69 7 2.38 7 0 7 C0 4.69 0 2.38 0 0 Z " fill="#FFBBAA" transform="translate(14,42)"/>
<path d="M0 0 C2.31 0 4.62 0 7 0 C7 2.31 7 4.62 7 7 C4.69 7 2.38 7 0 7 C0 4.69 0 2.38 0 0 Z " fill="#BB7744" transform="translate(119,35)"/>
<path d="M0 0 C2.31 0 4.62 0 7 0 C7 2.31 7 4.62 7 7 C4.69 7 2.38 7 0 7 C0 4.69 0 2.38 0 0 Z " fill="#BB7744" transform="translate(105,35)"/>
<path d="M0 0 C2.31 0 4.62 0 7 0 C7 2.31 7 4.62 7 7 C4.69 7 2.38 7 0 7 C0 4.69 0 2.38 0 0 Z " fill="#FFDDCC" transform="translate(77,35)"/>
<path d="M0 0 C2.31 0 4.62 0 7 0 C7 2.31 7 4.62 7 7 C4.69 7 2.38 7 0 7 C0 4.69 0 2.38 0 0 Z " fill="#FFDDCC" transform="translate(42,35)"/>
<path d="M0 0 C2.31 0 4.62 0 7 0 C7 2.31 7 4.62 7 7 C4.69 7 2.38 7 0 7 C0 4.69 0 2.38 0 0 Z " fill="#BB7744" transform="translate(14,35)"/>
<path d="M0 0 C2.31 0 4.62 0 7 0 C7 2.31 7 4.62 7 7 C4.69 7 2.38 7 0 7 C0 4.69 0 2.38 0 0 Z " fill="#BB7744" transform="translate(0,35)"/>
<path d="M0 0 C2.31 0 4.62 0 7 0 C7 2.31 7 4.62 7 7 C4.69 7 2.38 7 0 7 C0 4.69 0 2.38 0 0 Z " fill="#FFDDCC" transform="translate(119,28)"/>
<path d="M0 0 C2.31 0 4.62 0 7 0 C7 2.31 7 4.62 7 7 C4.69 7 2.38 7 0 7 C0 4.69 0 2.38 0 0 Z " fill="#775533" transform="translate(105,28)"/>
<path d="M0 0 C2.31 0 4.62 0 7 0 C7 2.31 7 4.62 7 7 C4.69 7 2.38 7 0 7 C0 4.69 0 2.38 0 0 Z " fill="#FFBBAA" transform="translate(98,28)"/>
<path d="M0 0 C2.31 0 4.62 0 7 0 C7 2.31 7 4.62 7 7 C4.69 7 2.38 7 0 7 C0 4.69 0 2.38 0 0 Z " fill="#FFBBAA" transform="translate(84,28)"/>
<path d="M0 0 C2.31 0 4.62 0 7 0 C7 2.31 7 4.62 7 7 C4.69 7 2.38 7 0 7 C0 4.69 0 2.38 0 0 Z " fill="#FFDDCC" transform="translate(56,28)"/>
<path d="M0 0 C2.31 0 4.62 0 7 0 C7 2.31 7 4.62 7 7 C4.69 7 2.38 7 0 7 C0 4.69 0 2.38 0 0 Z " fill="#FFDDCC" transform="translate(35,28)"/>
<path d="M0 0 C2.31 0 4.62 0 7 0 C7 2.31 7 4.62 7 7 C4.69 7 2.38 7 0 7 C0 4.69 0 2.38 0 0 Z " fill="#FFDDCC" transform="translate(21,28)"/>
<path d="M0 0 C2.31 0 4.62 0 7 0 C7 2.31 7 4.62 7 7 C4.69 7 2.38 7 0 7 C0 4.69 0 2.38 0 0 Z " fill="#BB7744" transform="translate(7,28)"/>
<path d="M0 0 C2.31 0 4.62 0 7 0 C7 2.31 7 4.62 7 7 C4.69 7 2.38 7 0 7 C0 4.69 0 2.38 0 0 Z " fill="#FFDDCC" transform="translate(0,28)"/>
<path d="M0 0 C2.31 0 4.62 0 7 0 C7 2.31 7 4.62 7 7 C4.69 7 2.38 7 0 7 C0 4.69 0 2.38 0 0 Z " fill="#BB7744" transform="translate(119,21)"/>
<path d="M0 0 C2.31 0 4.62 0 7 0 C7 2.31 7 4.62 7 7 C4.69 7 2.38 7 0 7 C0 4.69 0 2.38 0 0 Z " fill="#FFDDCC" transform="translate(28,21)"/>
<path d="M0 0 C2.31 0 4.62 0 7 0 C7 2.31 7 4.62 7 7 C4.69 7 2.38 7 0 7 C0 4.69 0 2.38 0 0 Z " fill="#BB7744" transform="translate(21,21)"/>
<path d="M0 0 C2.31 0 4.62 0 7 0 C7 2.31 7 4.62 7 7 C4.69 7 2.38 7 0 7 C0 4.69 0 2.38 0 0 Z " fill="#BB7744" transform="translate(0,21)"/>
<path d="M0 0 C2.31 0 4.62 0 7 0 C7 2.31 7 4.62 7 7 C4.69 7 2.38 7 0 7 C0 4.69 0 2.38 0 0 Z " fill="#000000" transform="translate(119,14)"/>
<path d="M0 0 C2.31 0 4.62 0 7 0 C7 2.31 7 4.62 7 7 C4.69 7 2.38 7 0 7 C0 4.69 0 2.38 0 0 Z " fill="#FFDDCC" transform="translate(21,14)"/>
<path d="M0 0 C2.31 0 4.62 0 7 0 C7 2.31 7 4.62 7 7 C4.69 7 2.38 7 0 7 C0 4.69 0 2.38 0 0 Z " fill="#000000" transform="translate(0,14)"/>
<path d="M0 0 C2.31 0 4.62 0 7 0 C7 2.31 7 4.62 7 7 C4.69 7 2.38 7 0 7 C0 4.69 0 2.38 0 0 Z " fill="#2F991E" transform="translate(119,7)"/>
<path d="M0 0 C2.31 0 4.62 0 7 0 C7 2.31 7 4.62 7 7 C4.69 7 2.38 7 0 7 C0 4.69 0 2.38 0 0 Z " fill="#FFDDCC" transform="translate(84,7)"/>
<path d="M0 0 C2.31 0 4.62 0 7 0 C7 2.31 7 4.62 7 7 C4.69 7 2.38 7 0 7 C0 4.69 0 2.38 0 0 Z " fill="#FFDDCC" transform="translate(35,7)"/>
<path d="M0 0 C2.31 0 4.62 0 7 0 C7 2.31 7 4.62 7 7 C4.69 7 2.38 7 0 7 C0 4.69 0 2.38 0 0 Z " fill="#2F991E" transform="translate(0,7)"/>
</svg>
